<svg id="svg" xmlns="http://www.w3.org/2000/svg" xmlns:xlink="http://www.w3.org/1999/xlink" version="1.1" width="500" height="525" preserveAspectRatio="xMidYMid meet" buffered-rendering="static" style="background: rgb(255, 255, 255);" viewBox="-0.01 7.02 475.01 518.03"><g><path d="M 183.75 7.017967341235256 C 183.3375 7.008085303555865 183.16641198077392 7.5625 183.36980440171982 8.25 C 183.57319682266575 8.9375 188.60895438567076 16.925 194.56037676395323 26 C 200.51179914223567 35.075 208.20411674000505 47.9 211.6544158701074 54.5 C 215.10471500020975 61.1 219.09908788927976 69.425 220.53080006804078 73 C 221.96251224680177 76.575 224.64931244100507 83.775 226.50146716627032 89 C 228.35362189153557 94.225 230.85093879442448 101.875 232.05106028380123 106 C 233.251181773178 110.125 234.85393926782527 117.325 235.61274360523964 122 C 236.371547942654 126.675 236.987631788022 131.175 236.9818188171685 132 C 236.976005846315 132.825 234.8052276743777 129 232.15786732397453 123.5 C 229.51050697357135 118 224.2463033493003 108.55 220.4596370478166 102.5 C 216.67297074633296 96.45 211.04173473050167 87.9 207.94577923485818 83.5 C 204.84982373921468 79.1 200.5579961631538 74.08683255353615 198.40838462138956 72.35962789674701 C 196.2587730796253 70.63242323995787 190.675 66.84253032407018 186 63.937643639218805 C 181.325 61.03275695436743 171.875 56.10261020501497 165 52.98176197399113 C 158.125 49.86091374296727 145.75 44.826020724086305 137.5 41.793110820922294 C 129.25 38.76020091775828 119.125 35.11685747583914 115 33.69679206110197 C 110.875 32.27672664636479 104.69607266763597 30.301512581133466 101.26905037252439 29.307427471699008 C 97.84202807741282 28.313342362264553 94.80452807741281 27.8375 94.51905037252439 28.25 C 94.23357266763598 28.6625 99.5724670453859 37.2125 106.38326010085758 47.25 C 113.19405315632926 57.2875 122.26060227740197 71.575 126.53114703657475 79 C 130.80169179574753 86.425 138.0542247503616 100.0375 142.64788693571717 109.25 C 147.24154912107272 118.4625 150.8875 126.21803629526772 150.75 126.48452510059495 C 150.6125 126.75101390592218 147.8 125.92006142912012 144.5 124.63796404103485 C 141.2 123.35586665294959 134.675 121.35464148061239 130 120.19079699139665 C 125.325 119.02695250218092 118.35 117.61681883153553 114.5 117.05716661218466 C 110.65 116.4975143928338 103.225 116.02275648473773 98 116.00214903863781 C 90.91902997983937 115.97422163040326 85.95365265280067 116.62493205887363 78.5 118.55761512297255 C 73 119.98372891545658 64.9 122.87816095326022 60.5 124.98968631809176 C 56.1 127.10121168292329 49.125 131.05401585631117 45 133.77369559228703 C 40.875 136.49337532826289 31.674931892398426 143.61939007562478 24.555404205329836 149.60928391975793 C 17.435876518261246 155.59917776389108 8.998376518261246 163.5375 5.805404205329836 167.25 L 0 174 L -0.004969609209936721 181.25 L -0.009939218419873441 188.5 L 11.245030390790063 189.17826244023325 C 17.517302509235154 189.55625071924047 28.47659686884284 191.17688223632254 36 192.83896199229184 C 43.425 194.47930240379577 53.325 197.22605493200405 58 198.94285649942134 C 62.675 200.65965806683866 70.325 204.13457244636217 75 206.66488845391808 C 79.675 209.195204461474 85.6400419875907 212.66823383516075 88.25564886131266 214.38273150655533 C 90.87125573503464 216.09722917794988 93.00333855579201 217.725 92.99361068521796 218 C 92.98388281464389 218.275 87.257264583038 220.525 80.26779239276041 223 C 73.20104765414101 225.50236251778955 61.55350632164321 230.76836507674307 54.02983056885513 234.86251846309437 C 46.588423755984806 238.9119036177963 37.35 244.29921783013688 33.5 246.83432782385125 C 29.65 249.36943781756563 23.9125 253.36880450917315 20.75 255.72180936075688 C 17.5875 258.0748142123406 15 260.45 15 261 C 15 261.55 16.9125 262.20628700002993 19.25 262.458415555622 C 21.5875 262.7105441112141 30.25 263.1843666451581 38.5 263.51135451994185 C 46.75 263.83834239472566 57.775 264.5298856770634 63 265.04811736958135 C 68.225 265.5663490620993 78.575 266.93360855096995 86 268.086471789294 C 93.425 269.2393350276181 105.0125 271.49150474525044 111.75 273.0912933840325 C 118.4875 274.6910820228146 125.4625 276.62092213691864 127.25 277.37982697093025 L 130.5 278.7596539418605 L 128.5 279.51932581267215 C 127.4 279.9371453416186 123.575 281.5337132157305 120 283.0672544218097 C 116.425 284.600795627889 108.1 288.6369916015942 101.5 292.03657880782146 C 94.9 295.43616601404864 88.825 298.81454945099074 88 299.54409755658173 C 86.73977889463697 300.6585120051191 88.49815745530815 300.95865254963417 99 301.4217057483041 C 105.875 301.7248421481604 118.7 302.22387371628975 127.5 302.5306647885915 C 136.3 302.8374558608932 148.9 303.5631203934967 155.5 304.1432526388215 L 167.5 305.1980385394119 L 171 309.19300217562386 C 173.3989765254749 311.93123759945195 178.2749376269432 315.12451419188216 186.5 319.34398290591787 L 198.5 325.5 L 198.75 332.25 C 198.94290055102522 337.45831487768106 198.51983192879908 339.9706906325712 196.89766766657834 343.25 C 195.74138488319642 345.5875 192.70388488319642 350.564100165745 190.14766766657834 354.3091114794333 C 186.041159142385 360.3253924053587 184.6849430147651 361.50394062170255 178.5 364.4309037759924 L 171.5 367.74358459311827 L 166.5 366.7532014650984 L 161.5 365.7628183370786 L 153.5 370.1235309559805 C 149.1 372.52192289637657 141.225 376.31614205814185 136 378.5551290932367 C 130.775 380.7941161283315 123.575 384.43469587023264 120 386.6453062974614 C 116.01270876141777 389.11085807044265 110.21415008122291 391.52618619682926 105 392.89339722728926 C 100.325 394.1192368114657 92.45 396.74380872178864 87.5 398.72577925022904 C 82.55 400.70774977866944 77.0375 403.15525557263896 75.25 404.1646810146058 C 72.5867381199727 405.6686610427568 71.67689164643794 407.128342538409 70.21027113574016 412.25 C 68.87686629053158 416.90644849841544 66.87419391396378 420.4122618019015 62.35567569837734 426 C 59.01999908317071 430.125 54.78561220899507 436.2 52.94592708909813 439.5 C 51.01836031765217 442.95764080873147 44.37333877996831 451.0084449144152 37.26359181443168 458.5 C 27.518898056538685 468.76800397162935 24.933899695832928 472.0779222367707 24.96306928797074 474.25 C 24.983381179586832 475.7625 26.38207651332421 479.5875 28.071281140720473 482.75 C 29.760485768116734 485.9125 33.73174888130748 491.65 36.896310281144366 495.5 C 40.471063256766676 499.84903837127484 43.34460899927056 504.58289842256977 44.48405503745023 508 C 45.54560718103082 511.18350442478936 46.2510731055426 515.9217908286292 46.15902589702634 519.25 L 46 525 L 135.5 525 L 225 525 L 225 522.5 L 225 520 L 233.75 520.2035453399236 L 242.5 520.4070906798472 L 234.25 520.7035453399236 L 226 521 L 226 523 L 226 525 L 285.5 525 L 345 525 L 340.59845880143087 516.25 C 338.17761114221787 511.4375 335.70261114221785 505.1375 335.09845880143087 502.25 C 334.4943064606439 499.3625 334 493.175 334 488.5 C 334 482.4037534908779 334.4948904245925 479.0109677323778 335.75 476.50264708644556 C 336.9320332593446 474.14036853588146 337.7443964327925 473.41012558361024 338.2530260608101 474.25264708644556 C 338.70197273858616 474.9963065368929 338.9038776917208 474.5388369593713 338.7530260608101 473.1197635924566 C 338.58386675531085 471.5284684652473 339.0800462660806 470.6169671899777 340.25 470.3697635924566 C 341.53298584373505 470.09867704694204 341.8507567791676 470.46701415626495 341.44075434769366 471.75 C 340.993182509472 473.1505486026718 341.1429473940412 473.25868088563067 342.19075434769366 472.2915101974833 C 343.21975484943073 471.341698669797 343.2398975179243 470.80657153365644 342.2848566045837 469.7915101974833 C 341.3189713479386 468.76492299529673 341.83178765363436 467.5717525234304 344.7848566045837 463.97475642710805 C 346.82818547206267 461.4858724620175 349.5125 458.44837246201746 350.75 457.22475642710805 C 352.6339805672389 455.36191292688073 354.0167206465586 455.02308448739 359.25 455.1419052978574 L 365.5 455.28381059571484 L 361.5 456 C 358.87138111632146 456.47064724809854 358.3571131977009 456.7610677258272 360 456.84708903826146 C 361.375 456.91908383694846 364.19576611853927 456.6454412209843 366.26836915230945 456.23899433611894 C 368.6505962803456 455.7718287576382 370.023850867356 454.9482459248623 370.00170248564547 454 C 369.9734279650704 452.7894736842094 370.211111111115 452.74444444444396 371.233333333336 453.7666666666694 C 371.9300000000012 454.4633333333376 372.95 455.01214942468147 373.5 454.98625798076694 C 374.05 454.96036653685246 373.6 454.40211713155736 372.5 453.7457037467779 C 371.4 453.08929036199845 370.05 452.4842242706545 369.5 452.40111243268035 C 368.95 452.3180005947062 367.375 452.14154939228683 366 452.00899864952623 C 364.3251926999676 451.84754632108985 364.07763488997733 451.64124814609795 365.25 451.38399864952623 C 366.2125 451.17279939228683 366.775 450.55 366.5 450 C 366.225 449.45 366.45 448.775 367 448.5 C 367.55 448.225 368 448.675 368 449.5 C 368 450.325 368.45 451 369 451 C 369.55 451 370 450.55 370 450 C 370 449.45 369.55 448.775 369 448.5 C 368.45 448.225 368.3375 447.357419837681 368.75 446.5720440837356 C 369.1625 445.78666832979013 371.4125 443.7616683297901 373.75 442.0720440837356 C 376.0875 440.382419837681 378.5625 439.297146398573 379.25 439.6603253301622 C 379.9375 440.0235042617514 380.1769190951648 439.9110042617514 379.78204243369953 439.4103253301622 C 379.38716577223425 438.909646398573 380.2204890934589 437.6 381.63387203642094 436.5 C 383.86849905056596 434.7608466249012 384.3331046867037 434.6956349686759 385.19616184035243 436 L 386.18866447526204 437.5 L 385.6868729999576 436 C 385.3357973256456 434.95053316490004 386.88433020174773 433.68987086951773 390.8425407623265 431.8027652781277 C 393.95414334304695 430.3192861810979 398.75 428.4534820486801 401.5 427.6565338727547 L 406.5 426.2075371892541 L 407.70620852696385 430.853768594627 C 408.5825380739147 434.22932909804007 408.6268187101887 436.59393681984113 407.8681214838032 439.5 C 407.2937589202347 441.7 405.22061549434113 447.1 403.26113609292855 451.5 C 401.301656691516 455.9 399.3162958609383 459.6125 398.8492231360892 459.75 C 398.38215041124016 459.8875 397.98624604120937 461.2375 397.96943564713195 462.75 L 397.93887129426395 465.5 L 399.99664131145323 463 C 401.1284148209074 461.625 403.5909903140354 456.9 405.46903129618227 452.5 C 407.34707227832916 448.1 409.5255031576007 442.025 410.3099888056747 439 C 411.4338359655827 434.6664119132474 412.241454138441 433.36208346075387 414.1181631738137 432.8496800253506 L 416.5 432.1993600507013 L 414.25 432.0996800253506 C 412.43881778341125 432.01944060789987 412 431.41490962211833 412 429 L 412 426 L 417.30644076210746 427.25 C 420.22498318126657 427.9375 423.395019589248 429.175 424.3509661131773 430 C 425.36210159356165 430.87262911725253 426.0704280962695 432.85930357928623 426.04452535106986 434.75 C 426.0200364079814 436.5375 424.875 440.25 423.5 443 C 422.125 445.75 421 448.45 421 449 C 421 449.55 420.4420365877844 449.6625 419.7600813061876 449.25 C 418.9376566194377 448.75253309500005 418.769301222771 448.92088849166674 419.2600813061876 449.75 C 419.6670365877844 450.4375 419.4375 451.8986027889317 418.75 452.996895086515 C 418.0625 454.0951873840982 417.157726930062 454.6576873840982 416.7393931779155 454.246895086515 C 416.32105942576896 453.8361027889317 416.25436700121867 454.4 416.59118779002586 455.5 C 417.0327192341466 456.941967374558 416.407892006912 458.1374365949167 414.3517946121103 459.7845854018366 C 412.78330757544967 461.0411073728467 411.1625 462.0536073728467 410.75 462.0345854018366 L 410 462 L 410.75 460.7600813061876 C 411.24746690499995 459.9376566194377 411.07911150833326 459.769301222771 410.25 460.2600813061876 C 409.46064075008576 460.72733063830384 409.27638445005147 461.76475323864173 409.75 463.07524312194306 C 410.30888661431965 464.6216772583603 411.073340157041 465.00390402972096 412.75 464.57524312194306 C 414.37320454725204 464.16024878802597 414.79106818241735 464.3454112884706 414.25 465.23991869381246 C 413.75253309500005 466.0623433805624 413.92088849166674 466.2306987772291 414.75 465.73991869381246 C 415.4375 465.3329634122156 415.775 464.55 415.5 464 C 415.225 463.45 415.3375 463.0168687166141 415.75 463.0374860369203 C 416.1625 463.05810335722646 418.975 460.8467387457348 422 458.1233424558278 C 425.025 455.39994616592077 429.00930329064585 452.34557744930663 430.85400731254634 451.3358564189075 L 434.2080146250927 449.5 L 435.62874747859814 451.5 C 436.4101505480262 452.6 436.78121883500086 454.175 436.45334367187525 455 C 436.1254685087496 455.825 436.22683543402627 456.17691909517487 436.6786035058234 455.7820424337219 C 437.1303715776205 455.38716577226893 438.2049169333419 456.06216577226894 439.0664820740931 457.2820424337219 C 439.92804721484424 458.50191909517486 441.8292154402814 462.875 443.2913003528423 467 C 444.75338526540327 471.125 446.8302469009148 478.775 447.90654843175696 484 C 448.9828499625991 489.225 449.8428584661235 495.975 449.81767843958903 499 C 449.7924984130545 502.025 450.0828227998493 505.625 450.46284374357737 507 C 451.0170128615941 509.00510669174633 451.38601554927794 509.24125173924955 452.32689545699606 508.192908873311 C 452.9721029556482 507.47400875363206 453.67024904053454 503.1990087536321 453.8783312011879 498.692908873311 L 454.2566624023758 490.5 L 456.6283312011879 490.75 C 457.93274904053453 490.8875 459.00689074853267 491.5625 459.01531277451704 492.25 C 459.0253351297793 493.0681367827111 459.337019633017 492.9817641392533 459.91746330146634 492 C 460.63468259015735 490.78689317173735 460.95513607384976 490.9781552862289 461.59293094200893 493 C 462.02667738046966 494.375 462.45216816055466 495.95 462.53846600886436 496.5 C 462.6247638571741 497.05 462.7639126703973 498.2875 462.8476855938047 499.25 C 462.9314585172121 500.2125 463.45 500.775 464 500.5 C 464.6400392825124 500.17998035874376 464.7823051080408 501.8897937668097 464.39522597499354 505.25 C 464.06260026124 508.1375 463.17595189848754 513.65 462.42489627998805 517.5 C 461.6738406614886 521.35 461.3018794789016 524.725 461.5983158742391 525 C 461.8947522695767 525.275 462.978724856492 524.375 464.00714384516215 523 C 465.0355628338323 521.625 466.15535298797744 518.925 466.4955664099292 517 L 467.1141362680233 513.5 L 468.5570681340116 516.25 C 469.3506806603052 517.7625 469.6670365877844 519.5625 469.26008130618754 520.25 C 468.76930122277093 521.0791115083333 468.93765661943763 521.247466905 469.76008130618754 520.75 C 470.58309643600586 520.2521759487586 471.16811729917237 520.8405864958618 471.5 522.5 C 471.775 523.875 472.675 525 473.5 525 C 474.43333333333334 525 475 524.0555555555555 475 522.5 C 475 521.125 473.425 516.625 471.5 512.5 C 468.47777777777776 506.0238095238095 468 503.9761904761905 468 497.5 C 468 491.8540439546861 467.47484465055436 488.94937509234455 465.87563552045935 485.75 C 464.707235056712 483.4125 461.8134775168691 479.25 459.4450632096973 476.5 L 455.1388553784758 471.5 L 457.1032282995161 465 C 458.18363340608823 461.425 459.8398909459312 453.2100527402596 460.78380061027815 446.7445616450213 C 462.04464501219456 438.108165005613 462.2123713869233 434.5262430143869 461.4159489553242 433.2445616450213 C 460.8197208807525 432.2850527402596 456.7697208807525 428.64646628647284 452.4159489553242 425.1588139699396 L 444.5 418.8176279398793 L 435.83999331537257 403.1588139699396 C 429.0334941332664 390.8514672945216 426.35811008042924 386.9402533763904 423.33999331537257 384.88473704823804 C 421.2279969919177 383.44634242476894 417.8592927822885 379.62134242476895 415.85398396064113 376.38473704823804 C 413.8486751389937 373.1481316717071 410.0236751389937 368.43741128042757 407.35398396064113 365.91646951206127 L 402.5 361.33293902412254 L 394.5 360.1770923049953 C 390.1 359.5413766094754 382.45 358.5701575037316 377.5 358.0188276255647 C 372.55 357.46749774739783 364.1125 357.0127174905775 358.75 357.00820483263067 L 349 357 L 345.75 350.95805011619143 C 343.4582845200654 346.6976100922797 341.76285806148815 344.7389180964915 340 344.3151910769184 C 338.625 343.98469104141293 332.775 344.25375312754613 327 344.91310682388104 L 316.5 346.11193172630817 L 310.5 340.2738650095327 C 307.2 337.0629283153062 303.2625 333.43774367688684 301.75 332.2178991463786 L 299 330 L 297.5306665516998 318.25 C 296.7225331551347 311.7875 295.3564861292969 302.45 294.49500649428245 297.5 C 293.633526859268 292.55 292.49723653148453 286.925 291.96991687698585 285 C 291.44259722248717 283.075 291.00864424832497 280.7125 291.0055769344032 279.75 C 291.00172846108825 278.5423780675485 293.4019600134291 276.8807159170897 298.75 274.38859448364786 C 303.0125 272.4023214496542 308.075 270.1852409177136 310 269.4617488571132 C 311.925 268.7382567965128 318.45 266.0648655566517 324.5 263.52087943519956 C 330.55 260.97689331374744 335.725 258.66894379431295 336 258.3921027253451 C 336.275 258.1152616563773 335.825 257.4844462676578 335 256.9902907504129 C 334.175 256.49613523316793 330.6875 255.84616528454305 327.25 255.54591308680196 C 323.8125 255.24566088906087 320.993743862766 254.6625 320.9860974728133 254.25 C 320.9784510828606 253.8375 328.06595108286064 250.3901453654148 336.7360974728133 246.589211923144 C 345.40624386276596 242.7882784808732 356.4375 237.7257784808732 361.25 235.339211923144 C 366.0625 232.9526453654148 370 230.55 370 230 C 370 229.45 367.1875 228.53330284197597 363.75 227.96289520439103 C 360.3125 227.39248756680607 354.45859502147493 226.60498756680607 350.7413222699443 226.21289520439103 C 347.0240495184137 225.82080284197596 343.9769930436965 225.275 343.9700856594617 225 C 343.9631782752269 224.725 345.6545832537519 223.66574240591325 347.7287633895174 222.64609423536277 C 349.80294352528284 221.62644606481228 359.375 217.41407164968828 369 213.28526220175388 C 378.625 209.15645275381945 393.025 203.18258148713346 401 200.00999272022946 C 408.975 196.83740395332546 416.5125 193.96227836844946 417.75 193.62082475383835 C 418.9875 193.27937113922727 420.0002218608265 192.4375 420.0004930240589 191.75 C 420.0007837345402 191.01294042851222 416.82055307776443 189.75793337923784 412.2504930240589 188.69163547189459 C 407.9877218608265 187.69703498143662 397.525 185.54628635598218 389 183.91219408199584 C 380.475 182.2781018080095 366.8918591278811 180.39186584565692 358.8152425064024 179.72055861010125 C 345.8700540121748 178.64458842244906 344.29112352388677 178.32230871022605 345.4865321602449 177 C 346.23235809133695 176.175 349.799202547222 173.925 353.4128531733229 172 C 357.0265037994237 170.075 359.98875683354817 167.825 359.99563769359935 167 C 360.0065974354101 165.68595104004962 357.24936952289227 165.60550354520953 337.75407417411895 166.35105906249336 C 325.5143333783535 166.8191415468647 311.675 167.82378496102748 307 168.58359998285508 C 302.325 169.34341500468267 297.2625 169.97293842656066 295.75 169.9825409203617 C 293.9731094207823 169.9938219655003 292.8277123734985 169.38074855041128 292.5131164463517 168.25 C 292.24533049184515 167.2875 289.88283049184514 163.9232505048899 287.2631164463517 160.77389001086644 C 284.6434024008583 157.62452951684298 279.8 152.94954774327059 276.5 150.38504162515002 C 273.2 147.82053550702946 267.35 144.2240010566309 263.5 142.39274284648656 C 259.65 140.56148463634224 253.8 138.37170471566546 250.5 137.52656524498263 C 247.2 136.68142577429978 243.2625 135.99220971980844 241.75 135.99497401277964 L 239 136 L 239 132 C 239 129.8 238.05573211138883 123.3875 236.90162691419744 117.75 C 235.747521717006 112.1125 233.44335752674755 103.225 231.78126204695644 98 C 230.1191665671653 92.775 226.76728726400128 83.55 224.33264137325864 77.5 C 221.89799548251597 71.45 217.37888935118104 61.55 214.29018330362547 55.5 C 211.2014772560699 49.45 204.7876275563205 38.425 200.03718397084901 31 C 195.28674038537756 23.575 189.84751070697092 15.145585303555865 187.95000690772318 12.267967341235256 C 186.05250310847543 9.390349378914646 184.1625 7.027849378914646 183.75 7.017967341235256 Z " class="odd" fill="#000000"></path><path d="M 207.65003957681395 176.2268480791323 C 207.73256134406162 176.37708163560956 207.42584670413822 180.1 206.9684514880953 184.5 C 206.51105627205237 188.9 206.3992555703161 196.325 206.7200054842369 201 L 207.30318714591112 209.5 L 204.68358187533724 213.5 C 203.2427989765216 215.7 200.9245818686916 220.3125 199.53198830238168 223.75 C 198.13939473607175 227.1875 197 230.675 197 231.5 C 197 232.325 197.3375 232.98789615211962 197.75 232.9731025602658 C 198.1625 232.95830896841198 199.625 231.13251775495516 201 228.91578875258398 C 202.375 226.69905975021277 204.9466969787453 223.44866359809316 206.7148821749896 221.69268619231815 L 209.9297643499792 218.5 L 210.5590400666904 221 C 210.9051417108815 222.375 210.4709447321362 226.0875 209.59415789170077 229.25 C 208.71737105126536 232.4125 208.03458323570405 236.9125 208.07685163489788 239.25 C 208.1191200340917 241.5875 208.72468297494748 245.3 209.42254705902184 247.5 L 210.6913908482479 251.5 L 210.23388366308086 243 C 209.86254239594965 236.1008716956808 210.17277684270542 233.3699729206959 211.8811067381959 228.5 C 213.03870838135103 225.2 215.00152367382043 221.69339817901943 216.24291849923898 220.70755150893208 C 217.48431332465753 219.72170483884474 219.9625 218.93420483884472 221.75 218.95755150893208 C 223.5375 218.98089817901945 226.125 219.45 227.5 220 C 228.875 220.55 231.8 222.8 234 225 C 236.2 227.2 238.225 228.775 238.5 228.5 C 238.775 228.225 238.55 227.1 238 226 C 237.45 224.9 235.5375 222.66270043392362 233.75 221.02822318649694 C 231.9625 219.39374593907027 228.925 217.54048953942717 227 216.9098756317345 C 225.075 216.27926172404185 222.04001609605015 215.92906129011823 220.25559132455587 216.13165244523756 C 218.47116655306158 216.3342436003569 217.0086665530616 216.3875 217.00559132455587 216.25 C 217.00251609605013 216.1125 217.3375 215.2614381869463 217.75 214.35875152654734 C 218.1625 213.45606486614838 219.85 212.0346758872379 221.5 211.20010935119075 C 223.15 210.36554281514358 226.075 209.32163350180826 228 208.8803108771122 C 230.0274914904237 208.41549120640954 233.18286686808722 208.51405256289283 235.5 209.1145809987774 C 237.7 209.6847521903893 240.5125 209.89222331677834 241.75 209.5756279463086 C 243.64314927804446 209.0912947769858 243.99783436284847 208.32594863630618 243.98634531670757 204.75 C 243.97883524089673 202.4125 243.73889437071875 199.6 243.45314338297874 198.5 C 243.16739239523872 197.4 241.4860370027203 195.73371193980736 239.71679806627117 194.79713764401637 C 237.94755912982203 193.86056334822538 235.375 192.96056334822538 234 192.79713764401637 L 231.5 192.5 L 237 188.43502253171687 C 240.025 186.19928492416116 243.0625 184.06178492416117 243.75 183.68502253171687 C 244.63245669256588 183.2014203575793 245.88198919709686 185.71982047501257 247.9996097713428 192.25 C 249.64939514558134 197.3375 251.01228632217757 202.625 251.02825683044557 204 C 251.04422733871357 205.375 250.15428584183022 208.525 249.05060905959368 211 C 247.94693227735718 213.475 247.03404110076093 216.0625 247.02196200049093 216.75 C 247.0098829002209 217.4375 248.0125 218.00156158199675 249.25 218.00347018221498 C 250.4875 218.0053787824332 253.1875 217.10537878243323 255.25 216.00347018221498 L 259 214 L 258 216 C 257.45 217.1 257 219.125 257 220.5 C 257 221.9554802910407 257.7311637962715 223.28384373363323 258.75 223.67936423601822 C 259.7125 224.05301456582822 262.1875 226.07801456582823 264.25 228.17936423601822 C 266.3125 230.2807139062082 268.675 232 269.5 232 C 270.4627619889136 232 271.5079583021323 230.11966696119768 272.4182493373052 226.75 C 273.3276947425271 223.38346334679977 275.1214693585269 220.15466903800015 277.4182493373052 217.75 C 279.68974768212087 215.3718001767186 281.91453345114576 214 283.5 214 C 284.875 214 286.225 214.45 286.5 215 C 286.78347277746917 215.5669455549383 285.5925730535495 215.98588470488613 283.75 215.96740526445387 C 281.855180810375 215.9484018397174 279.8419160050926 216.67811458376548 278.9217803505813 217.71740526445387 C 278.053759543401 218.69783236900426 276.3178081320874 221.3 275.06411054766227 223.5 C 273.42883845224253 226.36959044558816 272.74443754049656 229.2752916202861 272.642330197081 233.7819413135969 C 272.53785239426304 238.39321453134175 272.89892161016434 240.3172632493585 274 241.01662853907982 C 274.825 241.54063879061715 277.075 242.04012258353438 279 242.12659252334038 L 282.5 242.2838105957149 L 278.5 243 C 276.3 243.39390417235683 275.0625 243.780046788321 275.75 243.85809470214258 C 276.56143977725117 243.95021278476992 276.768625037042 244.78940840094788 276.3405268223262 246.25 C 275.9778165746056 247.4875 275.0778165746056 248.8375 274.3405268223262 249.25 C 273.60323707004676 249.6625 272.9965205873055 251.0125 272.99226797178994 252.25 C 272.9880153562744 253.4875 273.7755153562744 255.56716980968562 274.74226797178994 256.87148846596807 C 276.04478529959704 258.62881254611443 277.14744610255883 259.10530903846046 279 258.71139641530476 L 281.5 258.1798158986734 L 279 260.11021799827665 C 277.625 261.1719391530585 275.4875 262.93148057585694 274.25 264.02031004893996 C 272.6011639182954 265.47105859200474 272.03642053122445 267.00193986382567 272.13631256427914 269.75 C 272.2112844746327 271.8125 271.75199846940893 274.85 271.1156769971152 276.5 C 270.4793555248214 278.15 269.5387807114436 280.4 269.0255107451645 281.5 C 268.5122407788854 282.6 267.6018647506181 285.3 267.00245290457053 287.5 C 266.2882657931784 290.1212555781518 263.2089940330347 294.60217494915844 258.06889941532836 300.5 C 253.7548568422928 305.45 247.5870188757839 311.8230330712446 244.3625928230864 314.66229571387686 C 241.1381667703889 317.5015583565091 236.925 320.985693800147 235 322.404818921961 C 233.075 323.82394404377504 229.25 326.10901496046364 226.5 327.48275429238015 C 223.75 328.85649362429666 219.925 329.9875037132162 218 329.9961100455347 C 216.075 330.0047163778532 210.675 328.4023606045893 206 326.4353194382817 C 201.325 324.46827827197404 192.325 320.20046519035316 186 316.95129036801313 C 179.675 313.70211554567305 173.49982555616282 310.02136733100366 172.2773901248063 308.7718498909701 C 171.05495469344973 307.5223324509366 167.40693296757175 300.425 164.1706751784108 293 C 160.93441738924983 285.575 157.10632894439718 277.025 155.66381196762717 274 C 154.22129499085713 270.975 153.03181671673508 267.9375 153.02052691402264 267.25 C 153.0092371113102 266.5625 153.45 266 154 266 C 154.55 266 154.775 265.55 154.5 265 C 154.225 264.45 154.5625 263.80925894684884 155.25 263.5761309929974 C 156.09469341756366 263.2896995048979 156.1612760168188 262.88439292246153 155.45534640362516 262.3261309929974 C 154.880786925619 261.87175894684884 153.36016581030876 259.7 152.07618836960242 257.5 C 150.79221092889608 255.3 149.41018731115727 252.375 149.00502477462732 251 C 148.51887928353506 249.35016816713406 148.73283533658417 248.07491591643299 149.63418280865005 247.25 C 150.76343810964326 246.21650215330328 151.02369813877337 246.56290559858857 151.1368239207543 249.25 C 151.21207707716917 251.0375 151.61689291739148 249.575 152.03641467680387 246 C 152.57623709618156 241.39984492823856 153.3400262224507 239.12968128065816 154.64959075604958 238.23301676366103 C 155.6673158402223 237.53617598367458 157.7375 236.97367598367458 159.25 236.98301676366103 C 161.10542637339552 236.99447536170064 162.48794925087518 237.81324875145862 163.5 239.5 C 164.325 240.875 165.45 242 166 242 C 166.55 242 167 241.325 167 240.5 C 167 239.675 167.225 239 167.5 239 C 167.775 239 169.35 240.125 171 241.5 C 172.65 242.875 174.9 244 176 244 C 177.1 244 178.02063248436392 243.6625 178.04584996525313 243.25 C 178.07106744614234 242.8375 175.70856744614235 240.10957824022083 172.79584996525313 237.18795164493517 L 167.5 231.87590328987034 L 168.28555769465075 224.68795164493517 C 168.71761442670865 220.73457824022083 170.07051426682108 214.575 171.29200178378943 211 C 172.5134893007578 207.425 175.1374559403328 202.25 177.12303876062276 199.5 C 179.1086215809127 196.75 183.93161372467912 191.8 187.84079908010364 188.5 C 191.74998443552818 185.2 196.31001683336035 181.4875 197.97420440861958 180.25 C 199.63839198387882 179.0125 201.225 178 201.5 178 C 201.775 178 200.6385195221199 180.5875 198.97448782693314 183.75 C 197.31045613174638 186.9125 195.96045613174638 190.0625 195.97448782693314 190.75 C 195.9885195221199 191.4375 195.03422706922763 194.8125 193.8538379316169 198.25 C 192.67344879400622 201.6875 190.88909247360226 208.55 189.88860166405257 213.5 C 188.76024007549103 219.0826498455229 188.42234150489605 222.87970557271967 188.99870540002166 223.5 C 189.5946818488646 224.1414018524305 190.10009822203116 223.60350463107622 190.40812811062995 222 C 190.6722627371318 220.625 191.64280814106172 215.9 192.5648956749186 211.5 C 193.4869832087755 207.1 195.57495702861846 199.9 197.2048374967918 195.5 C 198.83471796496517 191.1 201.33288688007434 185.475 202.75632397481218 183 C 204.17976106954998 180.525 205.8294033503373 177.92708163560954 206.42219570989502 177.2268480791323 C 207.01498806945276 176.5266145226551 207.56751780956628 176.0766145226551 207.65003957681395 176.2268480791323 Z " class="even" fill="#ffffff"></path><path d="M 196.20047417542816 183.5 C 195.54283444921367 182.8349052144018 194.92505737993687 182.9989815395925 194.35584159668417 183.98991869381246 C 193.69176770796685 185.14599255690345 193.82144732797929 185.2580271370815 194.93458978231723 184.48991869381246 C 196.1079577646952 183.68025246392983 196.23582930468908 183.955220375816 195.63684053155418 186 C 194.97974022807423 188.24315608549537 195.0218670268537 188.2945248683963 196.04688332798088 186.5 C 196.8002627995625 185.18103736925383 196.85256335290597 184.15948131537309 196.20047417542816 183.5 Z " class="odd" fill="#000000"></path><path d="M 243.5 185 C 243.225 185 243 185.45 243 186 C 243 186.55 243.45 187 244 187 C 244.55 187 244.775 186.55 244.5 186 C 244.225 185.45 243.775 185 243.5 185 Z " class="odd" fill="#000000"></path><path d="M 191.75 196.51176307719092 C 191.6125 196.2432327696459 190.9375 197.14323276964592 190.25 198.51176307719092 C 189.5625 199.88029338473592 189.01801693379483 201.3375 189.0400376306552 201.75 C 189.06205832751556 202.1625 189.73705832751554 201.2625 190.5400376306552 199.75 C 191.34301693379484 198.2375 191.8875 196.78029338473593 191.75 196.51176307719092 Z " class="odd" fill="#000000"></path><path d="M 249.68932551368573 202.5 C 249.43779796668133 201.4 249.23200270095043 202.075 249.23200270095043 204 C 249.23200270095043 205.925 249.43779796668133 206.825 249.68932551368573 206 L 250.14664832642106 204.5 L 249.68932551368573 202.5 Z " class="odd" fill="#000000"></path><path d="M 187.49201474419138 203.25 C 187.2214066348861 203.1125 186.54254831103907 204.4625 185.98344069119793 206.25 C 185.42433307135676 208.0375 185.00604094939217 209.95 185.05390264238773 210.5 C 185.10176433538328 211.05 185.78062265923032 209.7 186.56247669538118 207.5 C 187.34433073153207 205.3 187.76262285349665 203.3875 187.49201474419138 203.25 Z " class="odd" fill="#000000"></path><path d="M 226.5 210.05116959064327 C 225.10697415530885 210.12550503410998 224.95523061648163 210.30916288864293 226 210.656328320802 C 226.825 210.93046679197994 227.725 210.88244047619048 228 210.5496031746032 C 228.275 210.21676587301587 227.6 209.99247076023394 226.5 210.05116959064327 Z " class="odd" fill="#000000"></path><path d="M 222.75 212.11600135047522 C 222.6125 212.1798020932366 221.7125 212.40480209323658 220.75 212.61600135047522 C 219.7875 212.82720060771385 219 213.45 219 214 L 219 215 L 221 214 C 222.1 213.45 223 212.775 223 212.5 C 223 212.225 222.8875 212.05220060771384 222.75 212.11600135047522 Z " class="odd" fill="#000000"></path><path d="M 182.5496031746032 214 C 182.21676587301587 213.725 181.99247076023394 214.4 182.05116959064327 215.5 C 182.12550503410998 216.89302584469115 182.30916288864293 217.04476938351837 182.656328320802 216 C 182.93046679197994 215.175 182.88244047619048 214.275 182.5496031746032 214 Z " class="odd" fill="#000000"></path><path d="M 227 215.08559803712745 C 226.0109448165596 215.12184525332432 226.18125975541278 215.43331788211208 227.5 216 C 228.6 216.47268621112858 229.95 216.88416709442123 230.5 216.91440196287255 C 231.05 216.9446368313239 230.825 216.53315594803124 230 216 C 229.175 215.46684405196876 227.825 215.0553631686761 227 215.08559803712745 Z " class="odd" fill="#000000"></path><path d="M 170.5496031746032 217 C 170.21676587301587 216.725 169.99247076023394 217.4 170.05116959064327 218.5 C 170.12550503410998 219.89302584469115 170.30916288864293 220.04476938351837 170.656328320802 219 C 170.93046679197994 218.175 170.88244047619048 217.275 170.5496031746032 217 Z " class="odd" fill="#000000"></path><path d="M 154.10761888789978 221.69332972772236 C 154.99180927624468 223.78699837747504 155.56567507745999 225.725 155.38287622393383 226 C 155.20007737040768 226.275 153.80164887085277 225.61545072846585 152.27525733603403 224.5343349521463 C 149.85553709323227 222.82049045740246 149.59608219622086 222.7884630586622 150.25 224.2843349521463 C 150.7470887756128 225.42145206947865 150.4941775512256 226.1686074829248 149.5 226.5 C 148.23790021098958 226.92069992967015 148.16405057204395 226.48454954285592 149.03436586727838 223.75 C 149.60326709428148 221.9625 150.6157670942815 219.91199837747504 151.28436586727838 219.19332972772236 C 152.26401166234905 218.14032043543244 152.8120834622193 218.62563984877147 154.10761888789978 221.69332972772236 Z " class="even" fill="#ffffff"></path><path d="M 181.54744033232078 218 C 181.31180005895686 217.725 180.8404519094125 219.075 180.5 221 C 180.1595480905875 222.925 180.0202723094642 224.59776785714286 180.19049826417046 224.7172619047619 C 180.3607242188767 224.83675595238094 180.83207236842105 223.48675595238095 181.23793859649123 221.7172619047619 C 181.6438048245614 219.94776785714285 181.78308060568472 218.275 181.54744033232078 218 Z " class="odd" fill="#000000"></path><path d="M 289.8287201968745 221 C 290.8842369405908 222.925 292.5649759781079 228.1 293.56369583580135 232.5 L 295.37955012251666 240.5 L 293.11830468052733 249 C 291.8746196874332 253.675 289.9736574790399 258.625 288.8939442174311 260 C 287.8142309558223 261.375 286.9424894269901 262.95 286.95674082002614 263.5 C 286.9709922130622 264.05 285.41155564388924 266.1875 283.491326221864 268.25 C 281.5710967998388 270.3125 279.2125 271.96837163182533 278.25 271.92971473738965 C 276.753561476688 271.8696132661946 276.78978454478624 271.7349047852168 278.5 271 L 280.5 270.14057052522077 L 278.25 270.07028526261035 C 277.0125 270.03162836817467 276.0207088105994 269.4375 276.0460195791097 268.75 C 276.07133034762006 268.0625 277.7910724857878 265.925 279.8676687750381 264 C 281.9442650642884 262.075 284.398556253689 259.2625 285.3216491959284 257.75 C 286.2447421381678 256.2375 286.775 254.55 286.5 254 C 286.225 253.45 285.325 253.225 284.5 253.5 L 283 254 L 284.5 251 C 285.325 249.35 286.0060520835963 246.7625 286.0134490746584 245.25 C 286.0208460657205 243.7375 285.1208460657205 240.5875 284.0134490746584 238.25 C 282.90605208359625 235.9125 281.325 233.775 280.5 233.5 C 279.675 233.225 278.999704887256 232.6625 278.9993441939022 232.25 C 278.99898350054843 231.8375 280.68648350054843 231.5 282.7493441939022 231.5 C 285.41659379932247 231.5 286.5 231.06671329361276 286.5 230 C 286.5 229.175 285.4875 228.3875 284.25 228.25 C 282.5833333333333 228.0648148148148 282 227.35185185185185 282 225.5 C 282 224.125 282.45 222.775 283 222.5 C 283.55 222.225 284.40157620594266 222.5625 284.8923915687615 223.25 C 285.3832069315804 223.9375 285.95279370765695 225.4 286.15813996004283 226.5 C 286.3634862124287 227.6 287.424410006486 228.67585287424856 288.5157483912813 228.89078416499677 L 290.5 229.28156832999355 L 289.64413439819884 225.89078416499677 C 289.17340831720827 224.02585287424856 288.5905680572574 221.375 288.34893382053036 220 C 287.9859377223341 217.9344001835979 288.2430655117619 218.10816025703704 289.8287201968745 221 Z " class="even" fill="#ffffff"></path><path d="M 169.66228070175438 223.5 C 169.38486842105263 222.95 169.1578947368421 223.625 169.1578947368421 225 C 169.1578947368421 226.375 169.38486842105263 226.825 169.66228070175438 226 L 170.16666666666666 224.5 L 169.66228070175438 223.5 Z " class="odd" fill="#000000"></path><path d="M 284.76493159432795 225 C 284.47231821810243 223.87407404557734 284.2036380504457 223.81172837131444 283.687550641947 224.75 C 283.30939778887614 225.4375 283.225 226.3375 283.5 226.75 C 283.775 227.1625 284.25982142857146 227.275 284.57738095238096 227 C 284.89494047619047 226.725 284.97933826506664 225.825 284.76493159432795 225 Z " class="odd" fill="#000000"></path><path d="M 180 226.50685043730982 C 179.725 226.2172848444969 179.13583945646138 226.7722848444969 178.69075434769198 227.74018377064317 C 178.03580349414224 229.16446468981854 178.1311359795984 229.26484653587474 179.19075434769198 228.26666666666665 C 179.9108394564614 227.58833333333334 180.275 226.79641603012277 180 226.50685043730982 Z " class="odd" fill="#000000"></path><path d="M 240.34196360009673 230.25 L 238.68392720019347 228.5 L 239.4543582196133 231 C 239.87809528029425 232.375 240.63171166025072 233.95 241.12906128618326 234.5 C 241.70426734822462 235.13609846600278 242.02726830776672 234.8631723155049 242.01666666666665 233.75 C 242.0075 232.7875 241.25388362004352 231.2125 240.34196360009673 230.25 Z " class="odd" fill="#000000"></path><path d="M 289.0902852715665 230.5 C 288.31782910364916 229.7902085881133 288.1974511343535 230.2255214702832 288.67548717727766 232 C 289.1154743145552 233.63324029643155 289.4927873492925 233.97994417785893 289.76377333428263 233 C 289.9919122861415 232.175 289.6888426579192 231.05 289.0902852715665 230.5 Z " class="odd" fill="#000000"></path><path d="M 169.5 231 C 169.225 231 169 231.45 169 232 C 169 232.55 169.45 233 170 233 C 170.55 233 170.775 232.55 170.5 232 C 170.225 231.45 169.775 231 169.5 231 Z " class="odd" fill="#000000"></path><path d="M 177.7057330069091 233.5 C 177.46738011232569 232.4 177.27236410766653 233.525 177.27236410766653 236 C 177.27236410766653 238.475 177.46738011232569 239.375 177.7057330069091 238 L 178.1391019061517 235.5 L 177.7057330069091 233.5 Z " class="odd" fill="#000000"></path><path d="M 231.25 235.1181662192687 L 229.5 234.23633243853735 L 227.25 235.1181662192687 C 225.9172137395311 235.64051997348025 224.7950724087396 237.12103901498244 224.49729592954895 238.75 C 224.2208086908009 240.2625 224.3333086908009 242.79480991077943 224.74729592954895 244.37735535728763 C 225.16128316829705 245.95990080379585 226.28275023991048 247.75990080379583 227.23944497757884 248.37735535728763 C 228.58459447363614 249.2455201425273 229.60464954276327 249.11953465507668 231.73944497757884 247.82156703694437 C 233.64810518474695 246.66109090770067 234.57714887118115 245.1952623552587 234.75 243.07156703694437 C 234.8875 241.38220516662497 234.55 239.1 234 238 C 233.45 236.9 232.2125 235.6031747986709 231.25 235.1181662192687 Z " class="odd" fill="#000000"></path><path d="M 292.85507268956803 235.3485217770314 C 292.6083484590779 234.5484107382643 292.11856944274683 234.62469684971492 291.25 235.5985217770314 C 290.5625 236.36933479966413 290 237.9 290 239 C 290 240.1 290.45 241 291 241 C 291.55 241 292.05220060771387 242.2375 292.11600135047524 243.75 C 292.20267879849 245.80482937107323 292.35004394946975 245.99442136078054 292.69895774755435 244.5 C 292.9557830231864 243.4 292.5660824154726 241.4589191102893 291.8329563970791 240.18648691175395 C 290.71877814115953 238.25269074005809 290.7224080883736 237.7603007227126 291.85507268956803 237.18648691175395 C 292.6003626688305 236.80891911028928 293.0503626688305 235.98183479966414 292.85507268956803 235.3485217770314 Z " class="odd" fill="#000000"></path><path d="M 242.64177506673855 236.5 C 242.3756408852955 235.95 242.17456902876648 236.85 242.19494871889628 238.5 C 242.21844131794055 240.40203031430755 242.3955366291836 240.76802020953838 242.6788290487927 239.5 C 242.92458354010594 238.4 242.90790924818157 237.05 242.64177506673855 236.5 Z " class="odd" fill="#000000"></path><path d="M 289.5496031746032 242 C 289.2167658730159 241.725 288.9924707602339 242.4 289.05116959064327 243.5 C 289.12550503410995 244.89302584469118 289.3091628886429 245.04476938351837 289.656328320802 244 C 289.93046679197994 243.175 289.8824404761905 242.275 289.5496031746032 242 Z " class="odd" fill="#000000"></path><path d="M 241 242.98753499673927 C 240.725 243.01123480050143 239.825 243.4504182624856 239 243.96349824559297 C 237.73130196888044 244.75252074786596 237.80840262517393 245.00523807417454 239.5 245.60237746178703 C 240.6 245.99068104758638 241.95 246.49736844631497 242.5 246.7283494589617 C 243.05 246.95933047160844 242.7182601823968 246.55244407578843 241.76280040532623 245.8241574682506 C 240.80734062825564 245.09587086071278 240.35734062825563 244.15 240.76280040532623 243.72222222222223 C 241.1682601823968 243.29444444444445 241.275 242.96383519297714 241 242.98753499673927 Z " class="odd" fill="#000000"></path><path d="M 168 244.2399930855026 C 166.12335686010073 243.8818181863051 164.9112451449565 244.47810372105224 163.13877285737914 246.63142234903384 C 161.03836526557393 249.1831388556823 160.8349786431096 250.21798559727722 161.29749212552085 256 C 161.58346265144027 259.575 163.1083285083555 265.875 164.68608291866582 270 C 166.57677985627328 274.9431805207863 168.1419899909071 277.5852273159738 169.27736365052414 277.75 C 170.22481364273585 277.8875 172.0125 277.28592251851404 173.25 276.41316115225345 L 175.5 274.82632230450696 L 172.5 275.4811632921028 C 170.06994996704356 276.0115954132656 169.18898430562606 275.69562253196057 167.86293159562464 273.8180021398493 C 166.9625439732182 272.54310096293216 165.50818637712933 268.8 164.6310258265383 265.5 C 163.75386527594725 262.2 163.02456664522163 257.25 163.0103622027036 254.5 C 162.99571739822514 251.6647453066451 163.63730710992914 248.5258646120097 164.49226797178994 247.25 C 165.32152058730549 246.0125 166.675 245 167.5 245 C 168.325 245 170.35 246.125 172 247.5 C 174.22222222222223 249.35185185185185 175 249.61111111111111 175 248.5 C 175 247.675 175.45 247 176 247 C 176.55 247 176.98749999999998 247.5625 176.97222222222223 248.25 C 176.95694444444445 248.9375 177.18194444444444 249.1625 177.47222222222223 248.75 C 177.7625 248.3375 177.56368390865535 247.2125 177.03040868590074 246.25 C 176.49713346314616 245.2875 176.06716987112762 244.95 176.07493403697063 245.5 C 176.08269820281365 246.05 175.30763300184117 245.825 174.35256692369845 245 C 172.855621768352 243.70691695430912 172.74602125784213 243.70394634595738 173.55804157262855 244.978465213049 C 174.32436106034942 246.18125365015484 174.12707708844283 246.29472863562106 172.5 245.58703594951774 C 171.4 245.10859398739862 169.375 244.50242469859182 168 244.2399930855026 Z " class="odd" fill="#000000"></path><path d="M 274.5496031746032 245 C 274.2167658730159 244.725 273.9924707602339 245.4 274.05116959064327 246.5 C 274.12550503410995 247.89302584469118 274.3091628886429 248.04476938351837 274.656328320802 247 C 274.93046679197994 246.175 274.8824404761905 245.275 274.5496031746032 245 Z " class="odd" fill="#000000"></path><path d="M 248.75 247.13618205383327 C 248.0625 247.21108218344156 246.4875 247.43608218344156 245.25 247.63618205383327 C 244.0125 247.83628192422498 243 248.45 243 249 C 243 249.55 241.9875 249.80760082184332 240.75 249.5724462707629 C 239.5125 249.3372917196825 237.6 249.5127458707941 236.5 249.96234438434422 C 235.4 250.41194289789433 232.8125 251.05434207605103 230.75 251.3898981135813 C 228.6875 251.7254541511116 224.1875 253.27408729158688 220.75 254.83130509241528 C 217.3125 256.3885228932437 213.825 258.43355930122516 213 259.37583044348514 C 212.175 260.3181015857452 211.8375 261.0690142941583 212.25 261.04452535106986 C 212.6625 261.0200364079815 214.575 260.1 216.5 259 C 218.425 257.9 220 257.45 220 258 C 220 258.55 221.40571647916445 258.2125 223.12381439814322 257.25 C 225.46334639091455 255.93936483877422 226.342076068463 255.8138320276959 226.62381439814322 256.75 C 226.8903958531983 257.635804286964 228.9666568503945 257.08653846476136 233.75 254.86479857346538 C 237.4625 253.14043778887134 241.85 251.77378601277766 243.5 251.82779462659056 C 245.15 251.88180324040349 247.2875 251.71764388234405 248.25 251.4629960531252 C 249.2125 251.20834822390634 250 250.1 250 249 C 250 247.9 249.4375 247.06128192422497 248.75 247.13618205383327 Z " class="odd" fill="#000000"></path><path d="M 152.5496031746032 253 C 152.21676587301587 252.725 151.99247076023394 253.4 152.05116959064327 254.5 C 152.12550503410998 255.89302584469115 152.30916288864293 256.04476938351837 152.656328320802 255 C 152.93046679197994 254.175 152.88244047619048 253.275 152.5496031746032 253 Z " class="odd" fill="#000000"></path><path d="M 177.75 259.03180337187047 C 176.43732585159967 259.00794767810686 175.99806776238768 259.81217658154225 175.99226797178994 262.25 C 175.98801535627442 264.0375 176.6630153562744 266.5125 177.49226797178994 267.75 C 178.32152058730549 268.9875 179.5625 269.98862480684977 180.25 269.9747217929995 C 180.9375 269.96081877914924 182.2875 269.2858187791492 183.25 268.4747217929995 C 184.696903814737 267.25541859987567 184.8106534718048 266.5237059945867 183.90676148215442 264.25 C 183.3054802973394 262.7375 182.06798029733937 260.9518115173417 181.15676148215442 260.28180337187047 C 180.2455426669695 259.61179522639924 178.7125 259.04929522639924 177.75 259.03180337187047 Z " class="odd" fill="#000000"></path><path d="M 249 260.5 C 248.4734661254714 259.2746897448127 248.1519564358438 259.08101730860955 248.16996528796102 260 C 248.18613240746814 260.825 248.5596480278857 262.625 249 264 C 249.643628510242 266.00973143672667 249.8064044805373 266.10778514938136 249.83003471203898 264.5 C 249.84620183154613 263.4 249.47268621112858 261.6 249 260.5 Z " class="odd" fill="#000000"></path><path d="M 285 261.5 C 284.45 261.225 284 261.45 284 262 C 284 262.55 284.45 263.225 285 263.5 C 285.55 263.775 286 263.55 286 263 C 286 262.45 285.55 261.775 285 261.5 Z " class="odd" fill="#000000"></path><path d="M 156.5 264 C 156.225 264 156 264.45 156 265 C 156 265.55 156.45 266.225 157 266.5 C 157.55 266.775 157.775 266.325 157.5 265.5 C 157.225 264.675 156.775 264 156.5 264 Z " class="odd" fill="#000000"></path><path d="M 271.25 265.0055913245559 C 271.1125 265.00251609605016 270.74825848507567 265.5625 270.4405744112793 266.25 C 270.1328903374828 266.9375 270.0399524397109 268.625 270.23404574956385 270 C 270.5083707442208 271.94337902702136 270.68858804771986 271.6663134399378 271.0434713382846 268.7555913245559 C 271.2945621022281 266.6961665530616 271.3875 265.0086665530616 271.25 265.0055913245559 Z " class="odd" fill="#000000"></path><path d="M 224.75 265.95547464893014 C 223.5125 265.9309857058417 221.96975597865378 266.4934857058417 221.32167995256395 267.20547464893014 C 220.38589148718057 268.23355008082444 220.85922666609818 268.7058282743983 223.62134058131556 269.5 C 225.53422995321878 270.05 227.30197397456502 270.1625 227.5496606287516 269.75 C 227.79734728293823 269.3375 227.775 268.325 227.5 267.5 C 227.225 266.675 225.9875 265.9799635920185 224.75 265.95547464893014 Z " class="odd" fill="#000000"></path><path d="M 250.5496031746032 267 C 250.21676587301587 266.725 249.99247076023394 267.4 250.05116959064327 268.5 C 250.12550503410998 269.8930258446911 250.30916288864293 270.04476938351837 250.656328320802 269 C 250.93046679197994 268.175 250.88244047619048 267.275 250.5496031746032 267 Z " class="odd" fill="#000000"></path><path d="M 188 268 C 187.45 268 187 269.125 187 270.5 C 187 271.875 186.1 275.25 185 278 C 183.4352116362641 281.91197090933974 183.27200727266506 283.19498181833734 184.25 283.89603219257225 C 184.9375 284.38884989848697 187.3 285.28634027800575 189.5 285.89045525816954 C 191.7 286.4945702383333 194.5125 286.99135575167577 195.75 286.9944230655973 C 196.9875 286.9974903795188 198.60769506173463 286.4375 199.3504334705214 285.75 C 200.09317187930822 285.0625 200.9931718793082 283.0375 201.3504334705214 281.25 C 201.78404730261806 279.08048403764684 201.58442921628966 277.80435751341 200.75 277.4115247803178 C 200.0625 277.08786340949257 197.025 277.63678022088743 194 278.6313399167508 C 190.975 279.6258996126142 187.9375 281.0157134614712 187.25 281.719815136433 C 186.5625 282.42391681139486 185.8875 282.98806106131394 185.75 282.9734690251421 C 185.6125 282.9588769889702 186.2728093674412 280.5963769889702 187.21735414986932 277.7234690251421 C 188.16189893229748 274.85056106131395 188.94939893229747 271.4875 188.96735414986932 270.25 C 188.9853093674412 269.0125 188.55 268 188 268 Z " class="odd" fill="#000000"></path><path d="M 222 272.5 C 221.45 272.225 220.80457532823766 272.7875 220.56572295163926 273.75 C 220.32687057504089 274.7125 217.73937057504088 277.70617821909184 214.81572295163926 280.4026182646486 C 211.89207532823767 283.0990583102053 206.575 286.6711241915974 203 288.34054244551993 C 199.425 290.00996069944244 197.0625 291.51628248035064 197.75 291.6879241808714 C 198.4375 291.8595658813921 202.0375 290.56420046105023 205.75 288.8093343578894 C 209.4625 287.0544682547286 214.32682315953372 283.7919682547286 216.55960702118603 281.5593343578894 C 218.7923908828383 279.3267004610502 221.15489088283832 276.4875 221.80960702118603 275.25 C 222.5766496967801 273.80018800446373 222.64436088690502 272.8221804434525 222 272.5 Z " class="odd" fill="#000000"></path><path d="M 252.68932551368573 273.5 C 252.43779796668133 272.4 252.23200270095043 273.075 252.23200270095043 275 C 252.23200270095043 276.925 252.43779796668133 277.825 252.68932551368573 277 L 253.14664832642106 275.5 L 252.68932551368573 273.5 Z " class="odd" fill="#000000"></path><path d="M 182.25 276.00616074157483 C 181.2875 276.00954914944106 179.375 276.59995110505275 178 277.3181650873787 C 176.625 278.0363790697046 174.24243994514336 279.4961067359959 172.70542210031857 280.5620043458038 C 171.1684042554938 281.6279019556117 169.7059042554938 283.0625 169.45542210031857 283.75 C 169.0948289713559 284.7397223057204 169.57261092741504 284.7343456707473 171.75 283.72417837231484 C 173.2625 283.022476477088 176.4125 281.447476477088 178.75 280.22417837231484 C 181.0875 279.0008802675417 183.225 277.55 183.5 277 C 183.775 276.45 183.2125 276.00277233370866 182.25 276.00616074157483 Z " class="odd" fill="#000000"></path><path d="M 254.02538026686256 282.5 C 253.40823414312456 279.6274163902739 253.32151446603197 280.75483278054776 253.71770449474957 286.5 C 254.02113101999586 290.9 254.44627654173252 294.725 254.662472320831 295 C 254.8786680999295 295.275 255.01712219738033 293.475 254.97014809294402 291 C 254.92317398850767 288.525 254.49802846677102 284.7 254.02538026686256 282.5 Z " class="odd" fill="#000000"></path><path d="M 267.5496031746032 279 C 267.2167658730159 278.725 266.9924707602339 279.4 267.05116959064327 280.5 C 267.12550503410995 281.8930258446912 267.3091628886429 282.04476938351837 267.656328320802 281 C 267.93046679197994 280.175 267.8824404761905 279.275 267.5496031746032 279 Z " class="odd" fill="#000000"></path><path d="M 265.5496031746032 286 C 265.2167658730159 285.725 264.9924707602339 286.4 265.05116959064327 287.5 C 265.12550503410995 288.8930258446912 265.3091628886429 289.04476938351837 265.656328320802 288 C 265.93046679197994 287.175 265.8824404761905 286.275 265.5496031746032 286 Z " class="odd" fill="#000000"></path><path d="M 216 293.6288441466363 C 215.175 293.3982426933851 212.74314739606837 294.17491580224373 210.59588310237413 295.3547843885443 C 208.4486188086799 296.53465297484496 206.1986188086799 298.26492723436513 205.59588310237413 299.19983829858916 C 204.99314739606837 300.1347493628132 204.725 301.1783301292158 205 301.51890666837267 C 205.275 301.8594832075296 208.2 301.8257838119873 211.5 301.44401912272326 C 215.96165941674997 300.927866389136 216.98721980558332 300.54359324259366 215.5 299.9452360155501 L 213.5 299.14057052522077 L 216 299.0504530011908 C 218.1083309351073 298.9744539757078 218.42166618702146 298.5755428707635 218 296.5042274966724 C 217.725 295.15336810740376 216.825 293.8594455998875 216 293.6288441466363 Z " class="odd" fill="#000000"></path><path d="M 271 294 C 272.1 294 273.6289952880366 295.0125 274.397767306748 296.25 C 275.1665393254594 297.4875 276.9584249107836 303.225 278.3797352741351 309 C 279.80104563748665 314.775 281.61468702830007 323.1 282.41004947594274 327.5 C 283.20541192358536 331.9 284.3169712255149 337.3 284.88018125800846 339.5 C 285.443391290502 341.7 286.263254611652 346.9921736835478 286.7020997494529 351.2603859634395 C 287.1409448872538 355.5285982433312 287.95 359.0263060463137 288.5 359.03306997006723 C 289.05 359.03983389382074 290.588294021507 357.122660210273 291.91843115890447 354.77268400662774 C 293.2485682963019 352.4227078029825 295.04856829630194 349.5184112596987 295.91843115890447 348.31869168821936 L 297.5 346.1373833764388 L 300.5 347.93565600590455 C 302.15 348.92470595211074 304.49565690030687 350.806294692412 305.71257088957077 352.1169643176852 L 307.9251417791416 354.5 L 300.71257088957077 357.89906654986095 C 296.74565690030687 359.7685531522845 292.15 361.92076268266845 290.5 362.6817543951587 C 288.85 363.4427461076489 284.575 365.601326023063 281 367.47859865163446 L 274.5 370.89182161267354 L 271.5 369.5710705877073 C 269.85 368.8446575239759 266.25 367.90672560184083 263.5 367.4867774274071 C 260.25085960408774 366.9906063082282 257.62457019795613 365.8558770741112 256 364.24628563849456 L 253.5 361.769335984916 L 253.76883183347542 353.134667992458 C 253.94143191851592 347.5908884090364 254.56786650992558 343.694584096759 255.51883183347542 342.25 C 256.33347432506395 341.0125 257 339.325 257 338.5 C 257 337.6666666666667 256.1111111111111 337 255 337 C 253.9 337 253 337.45 253 338 C 253 338.55 251.72307308239405 341.8125 250.16238462754234 345.25 C 248.6016961726906 348.6875 246.8016961726906 352.9625 246.16238462754234 354.75 C 245.4143913279465 356.84137162182395 244.5835489674376 357.7326242204209 243.83183781674808 357.25 C 242.98672109962192 356.707406217277 242.7793148823449 357.65574634690995 243.08183781674808 360.67928532501384 C 243.43945813670598 364.2534902985574 243.21043836234452 364.90683806437744 241.5 365.1919533090053 C 240.4 365.375313771443 236.4625 365.40713537518684 232.75 365.2626679839915 L 226 365 L 231.1044587196082 357.75 C 233.91191101539275 353.7625 238.27264703292283 347.35 240.79498320300843 343.5 C 243.31731937309405 339.65 245.90980151071093 336.05 246.55605461993488 335.5 C 247.20230772915883 334.95 249.94908479736682 330.45 252.66000366039714 325.5 C 255.37092252342745 320.55 259.11840594906135 313.35 260.9877446062503 309.5 C 262.8570832634393 305.65 265.4245701777011 300.5875 266.6932710823878 298.25 C 268.22082696983745 295.4355763058707 269.67556532040976 294 271 294 Z " class="even" fill="#ffffff"></path><path d="M 249.5 303 C 249.225 303 248.775 303.45 248.5 304 C 248.225 304.55 248.1125 305.2294173032106 248.25 305.50981622935683 C 248.3875 305.79021515550306 248.8375 305.3402151555031 249.25 304.50981622935683 C 249.6625 303.6794173032106 249.775 303 249.5 303 Z " class="odd" fill="#000000"></path><path d="M 242.75 313.97874628687714 C 242.6125 313.9670567446596 241.15 315.42955674465964 239.5 317.22874628687714 L 236.5 320.5 L 239.77125371312283 317.5 C 241.5704432553404 315.85 243.0329432553404 314.3875 243.02125371312283 314.25 C 243.00956417090526 314.1125 242.8875 313.99043582909474 242.75 313.97874628687714 Z " class="odd" fill="#000000"></path><path d="M 201.25 327.02240630813833 C 201.9375 327.03472977761436 205.2 328.37464693895214 208.5 330 C 212.67990450221555 332.05873350835265 216.16842087296908 333.0032950443276 220 333.11377574569497 C 223.025 333.20099934477935 224.4875 333.43608218344156 223.25 333.6361820538333 C 222.0125 333.836281924225 221.225 334.45 221.5 335 C 221.775 335.55 222.45 335.775 223 335.5 C 223.55 335.225 223.325 336.35 222.5 338 C 221.675 339.65 221.00689074853267 341.5625 221.01531277451704 342.25 C 221.02373480050144 342.9375 221.46753574354636 344.175 222.0015370923947 345 C 222.81291141394365 346.2535245776468 223.37959526728218 346.0070491552936 225.4502613988276 343.5 C 227.08777127337365 341.5173927195585 227.94027029923842 339.22825910055195 227.96403708094994 336.75 C 227.98381668642747 334.6875 227.6625 332.8487527541603 227.25 332.66389500924504 C 226.8375 332.4790372643298 226.95 332.43598374145864 227.5 332.56822051397575 C 228.05 332.70045728649285 230.86948724316446 333.1892045323326 233.7655272070321 333.6543255047307 C 236.6615671708998 334.1194464771288 239.02845081273665 334.5 239.02526863333628 334.5 C 239.0220864539359 334.5 238.31642809717678 336.975 237.45713895164934 340 C 236.5978498061219 343.025 235.6701496262692 346.175 235.39558299642113 347 L 234.89637094215186 348.5 L 233.963498245593 347 C 233.21738745657925 345.80030127620955 233.0275599185476 345.9504519143143 233.01531277451707 347.75 C 233.00689074853267 348.9875 232.24987715489175 351.4625 231.3330603442039 353.25 C 230.41624353351605 355.0375 228.16624353351605 358.6375 226.3330603442039 361.25 C 223.72465501666056 364.9672820250244 222.40211064606677 365.997576002419 220.25 365.9888507910305 C 218.7375 365.98271872609723 214.125 366.827344868081 210 367.8657977732167 C 205.875 368.90425067835235 200.475 370.7385888734597 198 371.9421048734553 L 193.5 374.1303157825382 L 194.27407341119053 371.8151578912691 C 194.6998137873453 370.5418210510711 195.26842484281065 368.15 195.5376535344468 366.5 C 195.9313557862561 364.08714900875736 195.5377298202572 364.4785816812623 193.52644704276625 368.5 C 192.15105478070578 371.25 191.01994372524044 374.0625 191.01286691950997 374.75 C 191.00579011377948 375.4375 190.6625 376.0022257381434 190.25 376.0049460847631 C 189.8375 376.0076664313828 187.33830824575668 375.22016643138284 184.69624054612598 374.2549460847631 L 179.89248109225193 372.5 L 172.46710887108202 374 C 168.38315414943858 374.825 165.03628176010506 375.275 165.02961467256307 375 C 165.02294758502111 374.725 167.60105683879087 372.86346666178724 170.75874634760703 370.86325924841617 C 173.91643585642316 368.86305183504504 177.625 366.68707601272644 179 366.02775742104154 C 180.375 365.3684388293566 181.95 365.06789586839795 182.5 365.35988417446674 C 183.05 365.6518724805356 184.4557716248728 364.9028483028542 185.6239369441618 363.69538600184137 C 186.7921022634508 362.4879237008286 189.31114633822844 359.025 191.2218126658899 356 C 193.13247899355133 352.975 195.55170736867854 349.15 196.5978757217281 347.5 L 198.5 344.5 L 199.09980628372395 349 C 199.45902395753933 351.69500266341527 199.75985684697014 348.185285620056 199.84980628372395 340.25 C 199.96164976193054 330.38323511142244 200.3191731237191 327.0057211930876 201.25 327.02240630813833 Z " class="even" fill="#ffffff"></path><path d="M 249.39781234461435 333 C 249.2059547783245 332.725 248.84015401317134 333.625 248.58492175538512 335 C 248.3296894975989 336.375 247.8358594569765 339.975 247.48752166511312 343 C 247.13918387324975 346.025 247.10194174560922 348.275 247.40476138146755 348 C 247.70758101732588 347.725 248.35838543036724 344.35 248.85099341044838 340.5 C 249.34360139052953 336.65 249.5896699109042 333.275 249.39781234461435 333 Z " class="odd" fill="#000000"></path><path d="M 230 334 C 229.45 334 229 334.45 229 335 C 229 335.55 229.45 335.775 230 335.5 C 230.55 335.225 231 334.775 231 334.5 C 231 334.225 230.55 334 230 334 Z " class="odd" fill="#000000"></path><path d="M 211.81123529337782 341 L 209.9588818053124 335.5 L 210.4334085172972 340.5 C 210.69439820888886 343.25 211.3711498026936 345.95 211.93730094797436 346.5 C 212.50345209325513 347.05 213.1234741424914 347.275 213.31512772405495 347 C 213.50678130561852 346.725 212.83002971181378 344.025 211.81123529337782 341 Z " class="odd" fill="#000000"></path><path d="M 255.5496031746032 345 C 255.2167658730159 344.725 254.9924707602339 345.4 255.05116959064327 346.5 C 255.12550503410995 347.8930258446912 255.3091628886429 348.04476938351837 255.656328320802 347 C 255.93046679197994 346.175 255.88244047619048 345.275 255.5496031746032 345 Z " class="odd" fill="#000000"></path><path d="M 246.51929699351672 349 C 246.2495016549167 348.725 245.5722890110391 349.7375 245.01438000712199 351.25 C 244.4564710032049 352.7625 244.01761381478585 354.5625 244.03914181063521 355.25 C 244.06066980648458 355.9375 244.7378824503622 354.925 245.54405879702992 353 C 246.35023514369763 351.075 246.7890923321167 349.275 246.51929699351672 349 Z " class="odd" fill="#000000"></path><path d="M 285.5496031746032 354 C 285.2167658730159 353.725 284.9924707602339 354.4 285.05116959064327 355.5 C 285.12550503410995 356.8930258446912 285.3091628886429 357.04476938351837 285.656328320802 356 C 285.93046679197994 355.175 285.8824404761905 354.275 285.5496031746032 354 Z " class="odd" fill="#000000"></path><path d="M 302.5 355.03062554903414 C 301.95 355.03062554903414 300.825 355.4668440519688 300 356 C 299.175 356.5331559480312 298.95 356.96937445096586 299.5 356.96937445096586 C 300.05 356.96937445096586 301.175 356.5331559480312 302 356 C 302.825 355.4668440519688 303.05 355.03062554903414 302.5 355.03062554903414 Z " class="odd" fill="#000000"></path><path d="M 292.5 360.03062554903414 C 291.95 360.03062554903414 290.825 360.4668440519688 290 361 C 289.175 361.5331559480312 288.95 361.96937445096586 289.5 361.96937445096586 C 290.05 361.96937445096586 291.175 361.5331559480312 292 361 C 292.825 360.4668440519688 293.05 360.03062554903414 292.5 360.03062554903414 Z " class="odd" fill="#000000"></path><path d="M 261.5 365.1949487188963 C 259.5979696856924 365.2184413179405 259.2319797904616 365.3955366291836 260.5 365.6788290487927 C 261.6 365.9245835401059 262.95 365.90790924818157 263.5 365.64177506673855 C 264.05 365.37564088529547 263.15 365.1745690287665 261.5 365.1949487188963 Z " class="odd" fill="#000000"></path><path d="M 282.5 365.03062554903414 C 281.95 365.03062554903414 280.825 365.4668440519688 280 366 C 279.175 366.5331559480312 278.95 366.96937445096586 279.5 366.96937445096586 C 280.05 366.96937445096586 281.175 366.5331559480312 282 366 C 282.825 365.4668440519688 283.05 365.03062554903414 282.5 365.03062554903414 Z " class="odd" fill="#000000"></path><path d="M 266.5 366.05116959064327 C 265.1069741553088 366.12550503410995 264.95523061648163 366.3091628886429 266 366.656328320802 C 266.825 366.93046679197994 267.725 366.8824404761905 268 366.5496031746032 C 268.275 366.2167658730159 267.6 365.9924707602339 266.5 366.05116959064327 Z " class="odd" fill="#000000"></path><path d="M 235.5 367.61700781808133 C 238.8 367.7993300942901 245.1 368.21772768073333 249.5 368.54678023239956 C 253.9 368.87583278406584 260.54589174690017 369.89991963927577 264.2686483264448 370.82252879953273 C 267.99140490598944 371.74513795978976 271.02890490598946 372.8375 271.0186483264448 373.25 C 271.00839174690014 373.6625 270.775 374 270.5 374 C 270.225 374 255.9375 377.3679435522335 238.75 381.48431900496337 C 221.5625 385.60069445769324 199.0625 391.22569445769324 188.75 393.98431900496337 C 175.73513594297913 397.4658340078319 169.99650280042218 398.6176576038014 169.98856653220844 397.75 C 169.98227812492306 397.0625 172.34477812492307 394.21015704317085 175.23856653220844 391.41146009593524 C 178.13235493949378 388.6127631486997 182.525 384.7524430853729 185 382.83297106632017 C 187.475 380.9134990472675 191.525 378.1817518323527 194 376.7624216998428 C 196.475 375.3430915673329 200.975 373.2689945013893 204 372.15331710885687 C 207.025 371.0376397163245 212.2 369.64606321766945 215.5 369.0609248896234 C 218.8 368.47578656157725 223.3 367.8369440641942 225.5 367.6412748954388 C 227.7 367.4456057266834 232.2 367.4346855418725 235.5 367.61700781808133 Z " class="even" fill="#ffffff"></path><path d="M 177.5 375.0567132725648 C 179.15 375.00730573297193 181.9625 375.4243330713568 183.75 375.9834406911979 C 185.5375 376.54254831103907 187.01048296519997 377.3375 187.02329547822217 377.75 C 187.03610799124434 378.1625 185.12360799124434 379.1057078272206 182.77329547822217 379.8460173938236 C 180.42298296519996 380.5863269604266 176.1375 382.94882696042663 173.25 385.0960173938236 C 170.3625 387.2432078272206 166.26967047648745 391.5875 164.15482328108322 394.75 L 160.30964656216648 400.5 L 149.65482328108322 402.25 C 143.79467047648745 403.2125 137.9875 404.0075 136.75 404.0166666666667 C 135.5125 404.0258333333334 133.97091828347143 403.4633333333334 133.32426285215874 402.7666666666667 C 132.4968059475848 401.8752156471498 132.43333486193947 400.61133136201374 133.10999484629383 398.5 C 133.63880287438081 396.85 136.6428845909094 392.9990429462499 139.7857319941351 389.9423176583332 C 143.7409904182329 386.0954435044125 147.3469657845537 383.683343155233 151.5 382.10643774322455 C 154.8 380.8534290778316 161.325 378.7748587931968 166 377.4873926662583 C 170.675 376.19992653931985 175.85 375.10612081215777 177.5 375.0567132725648 Z " class="even" fill="#ffffff"></path><path d="M 413.5496031746032 428 C 413.2167658730159 427.725 412.9924707602339 428.4 413.05116959064327 429.5 C 413.12550503410995 430.8930258446912 413.3091628886429 431.04476938351837 413.656328320802 430 C 413.93046679197994 429.175 413.8824404761905 428.275 413.5496031746032 428 Z " class="odd" fill="#000000"></path><path d="M 405 431.1578947368421 C 403.625 431.1578947368421 403.0625 431.34736842105264 403.75 431.57894736842104 L 405 432 L 406.25 431.57894736842104 C 406.9375 431.34736842105264 406.375 431.1578947368421 405 431.1578947368421 Z " class="odd" fill="#000000"></path><path d="M 399 432.23200270095043 C 397.075 432.23200270095043 396.4 432.43779796668133 397.5 432.68932551368573 L 399.5 433.14664832642103 L 401 432.68932551368573 C 401.825 432.43779796668133 400.925 432.23200270095043 399 432.23200270095043 Z " class="odd" fill="#000000"></path><path d="M 394.25 433.07309890053534 C 393.8375 433.11330329582984 392.15 434.0603739228747 390.5 435.1777002939684 C 388.85 436.29502666506215 388.4 436.88607803416033 389.5 436.4911477808532 C 390.6 436.0962175275461 392.2875 435.59914690050124 393.25 435.38654638742014 C 394.2125 435.1739458743391 395 434.55 395 434 C 395 433.45 394.6625 433.0328945052409 394.25 433.07309890053534 Z " class="odd" fill="#000000"></path><path d="M 419.6840536028613 436.5 L 419.27236410766653 434.5 L 419.12252737054087 436.5 C 419.0401171651217 437.6 418.74114160196314 439.625 418.45813723018847 441 L 417.9435838269618 443.5 L 419.0196634625089 441 C 419.61150726205983 439.625 419.9104828252184 437.6 419.6840536028613 436.5 Z " class="odd" fill="#000000"></path><path d="M 385.25 437.97118984273413 C 384.5625 437.98703542923033 383.6625 438.59105480909756 383.25 439.31345513132794 C 382.8375 440.0358554535583 380.925 441.1179798128734 379 441.7181759298059 L 375.5 442.80944159695593 L 380 442.2614220350465 L 384.5 441.7134024731371 L 386.61560069573443 447.10670123656854 C 387.7791810783884 450.07301555645586 389.0166810783884 454.6375 389.36560069573443 457.25 C 389.7559810281202 460.17293286951036 389.615354288318 462 389 462 C 388.45 462 386.5375 461.14620666204127 384.75 460.1026814712028 C 382.9625 459.05915628036433 380.375 457.876737010562 379 457.4750830938643 C 376.7585639815937 456.82033287144964 376.8878459723905 457.11998975734997 380.25 460.3724016226615 C 382.3125 462.3675807301977 383.6625 464.2971463985789 383.25 464.6603253301754 L 382.5 465.32065066035074 L 383.75 464.6603253301754 C 384.4375 464.2971463985789 386.042665837189 464.7875 387.3170351937534 465.75 C 388.59140455031775 466.7125 389.7484712481049 467.95 389.8882945221693 468.5 C 390.0281177962337 469.05 390.7854519590447 470.2875 391.5712593284159 471.25 C 392.4889760794332 472.3740698513185 393.57923505213796 472.73174422199367 394.61944802207836 472.25 C 395.5722952910451 471.8087166479058 396.0868230375548 471.91162219720775 395.86944802207836 472.5 C 395.6662516099353 473.05 395.95 473.6445666977872 396.5 473.8212593284159 C 397.05 473.99795195904466 398.3343468238497 474.8979519590447 399.35410405299933 475.8212593284159 C 400.37386128214894 476.74456669778715 401.92778765376244 478.85 402.80727376769596 480.5 C 403.68675988162954 482.15 404.29614905089477 484.175 404.1614719216187 485 L 403.9166044138442 486.5 L 404.9870141161373 485 C 405.8479773504645 483.7935041613281 406.0028884149862 483.98917360221344 405.7787119092152 486 C 405.62542035914686 487.375 405.95 488.63138789657694 406.5 488.79197310350435 C 407.05 488.95255831043175 408.51019448573004 490.7525583104317 409.74487663495563 492.79197310350435 C 410.9795587841813 494.831387896577 411.9851680356486 497.175 411.9795638604386 498 L 411.96937445096586 499.5 L 411 498 C 410.4668440519688 497.175 410.03062554903414 496.95 410.03062554903414 497.5 C 410.03062554903414 498.05 410.4668440519688 499.175 411 500 L 411.96937445096586 501.5 L 411.99855950145115 500 C 412.01461127921806 499.175 412.90379349985756 500.3 413.97451999176116 502.5 C 415.04524648366476 504.7 417.28900395947903 509.9875 418.9606477157929 514.25 C 420.63229147210683 518.5125 422 522.675 422 523.5 C 422 524.3333333333334 422.8888888888889 525 424 525 C 425.1 525 426.0054146984045 524.8875 426.01203266312103 524.75 C 426.0186506278376 524.6125 424.9511266859853 521.35 423.6397572367826 517.5 C 422.3283877875799 513.65 419.1282649920259 505.775 416.52837324666257 500 C 413.92848150129925 494.225 411.4044716080946 489.05 410.9194623728745 488.5 C 410.4344531376543 487.95 409.9542090842559 486.15 409.85225336532244 484.5 C 409.750297646389 482.85 409.9979128982781 480.6 410.4025094806315 479.5 C 410.9267872033541 478.0746159998676 410.75916031999185 478.1603697302953 409.8190698151825 479.79847317320605 L 408.5 482.09694634641204 L 407.0713585927026 479.29847317320605 C 406.2856058186891 477.7593129279427 405.61060581868907 476.05 405.5713585927026 475.5 C 405.5321113667162 474.95 405.26 474.725 404.9666666666667 475 C 404.67333333333335 475.275 402.7608333333333 473.8125 400.7166666666667 471.75 C 397.5864340956935 468.5916935943096 397.00336461604314 467.3294139264491 397.0213240607691 463.75 C 397.0330522941921 461.4125 396.1330522941921 456.4625 395.0213240607691 452.75 C 393.890077535378 448.97232070819734 392.165284258598 445.44957023922274 391.104399959626 444.75 C 390.06181993742024 444.0625 388.59931993742026 442.2495354292303 387.854399959626 440.72118984273413 C 387.10947998183167 439.1928442562379 385.9375 437.9553442562379 385.25 437.97118984273413 Z " class="odd" fill="#000000"></path><path d="M 372 445 C 371.45 445 370.775 445.45 370.5 446 C 370.225 446.55 370.675 446.775 371.5 446.5 C 372.325 446.225 373 445.775 373 445.5 C 373 445.225 372.55 445 372 445 Z " class="odd" fill="#000000"></path><path d="M 409.75 456.95547464893014 C 409.6125 456.9309857058417 408.825 457.71848570584166 408 458.70547464893014 L 406.5 460.5 L 408.29452535106986 459 C 409.28151429415834 458.175 410.0690142941583 457.3875 410.04452535106986 457.25 C 410.0200364079815 457.1125 409.8875 456.9799635920185 409.75 456.95547464893014 Z " class="odd" fill="#000000"></path><path d="M 391.6882157309634 459.75 C 392.40969707893356 460.4375 393 461.9 393 463 C 393 464.53527768311835 392.70954855194896 464.7377465879382 391.75 463.871354344153 C 391.0625 463.25059923343724 390.47219707893356 461.7880992334372 390.4382157309634 460.621354344153 C 390.3881326278275 458.90175791511257 390.62486695525126 458.73673432742385 391.6882157309634 459.75 Z " class="even" fill="#ffffff"></path><path d="M 351.75 459.95547464893014 C 351.6125 459.9309857058417 350.825 460.71848570584166 350 461.70547464893014 L 348.5 463.5 L 350.29452535106986 462 C 351.28151429415834 461.175 352.0690142941583 460.3875 352.04452535106986 460.25 C 352.0200364079815 460.1125 351.8875 459.9799635920185 351.75 459.95547464893014 Z " class="odd" fill="#000000"></path><path d="M 374 460 C 373.45 460 373 460.225 373 460.5 C 373 460.775 373.675 461.225 374.5 461.5 C 375.325 461.775 375.775 461.55 375.5 461 C 375.225 460.45 374.55 460 374 460 Z " class="odd" fill="#000000"></path><path d="M 427.25 459.983016763661 C 426.2875 459.9736759836745 424.6 460.6735007831174 423.5 461.538182984645 L 421.5 463.11033244196807 L 424 461.9504991128527 C 425.375 461.3125907818392 427.2875 461.0627659823964 428.25 461.39533289186863 C 429.25736833227637 461.74340288975475 429.78781952350755 461.57563904701504 429.5 461 C 429.225 460.45 428.2125 459.9923575436475 427.25 459.983016763661 Z " class="odd" fill="#000000"></path><path d="M 378.25 463.95547464893014 C 378.1125 463.9799635920185 377.9799635920185 464.1125 377.95547464893014 464.25 C 377.9309857058417 464.3875 378.71848570584166 465.175 379.70547464893014 466 L 381.5 467.5 L 380 465.70547464893014 C 379.175 464.71848570584166 378.3875 463.9309857058417 378.25 463.95547464893014 Z " class="odd" fill="#000000"></path><path d="M 346.5 465 C 346.225 465 345.775 465.45 345.5 466 C 345.225 466.55 345.1125 467.2294173032106 345.25 467.50981622935683 C 345.3875 467.79021515550306 345.8375 467.3402151555031 346.25 466.50981622935683 C 346.6625 465.6794173032106 346.775 465 346.5 465 Z " class="odd" fill="#000000"></path><path d="M 433.461817015355 466.5 L 431.88966755803193 464.5 L 433.0802884611952 467 C 433.73512995793504 468.375 434.44745475737784 469.725 434.66323245995704 470 C 434.87901016253625 470.275 435.0506980119081 470.05 435.0447610141168 469.5 C 435.03882401632546 468.95 434.3264992168826 467.6 433.461817015355 466.5 Z " class="odd" fill="#000000"></path><path d="M 384.19075434769195 469.73333333333335 C 383.1311359795984 468.7351534641253 383.0358034941422 468.83553531018146 383.69075434769195 470.25981622935683 C 384.1358394564614 471.22771515550306 384.725 471.78271515550307 385 471.4931495626902 C 385.275 471.20358396987723 384.9108394564614 470.41166666666663 384.19075434769195 469.73333333333335 Z " class="odd" fill="#000000"></path><path d="M 392 469 C 392.55 469 393.2668343970121 469.7875 393.59296532669356 470.75 C 394.1246295450616 472.3190839586391 394.0166458927092 472.34492910740494 392.54843997562364 471 C 391.64782010285376 470.175 390.9309857058417 469.3875 390.95547464893014 469.25 C 390.9799635920185 469.1125 391.45 469 392 469 Z " class="even" fill="#ffffff"></path><path d="M 416.75 468.95547464893014 C 416.6125 468.9309857058417 415.825 469.71848570584166 415 470.70547464893014 L 413.5 472.5 L 415.29452535106986 471 C 416.28151429415834 470.175 417.0690142941583 469.3875 417.04452535106986 469.25 C 417.0200364079815 469.1125 416.8875 468.9799635920185 416.75 468.95547464893014 Z " class="odd" fill="#000000"></path><path d="M 412.75 473.49018377064317 C 412.6125 473.20978484449694 412.1625 473.6597848444969 411.75 474.49018377064317 C 411.3375 475.3205826967894 411.0136839086553 476.3375 411.03040868590074 476.75 C 411.04713346314617 477.1625 411.49713346314616 476.7125 412.03040868590074 475.75 C 412.5636839086553 474.7875 412.8875 473.7705826967894 412.75 473.49018377064317 Z " class="odd" fill="#000000"></path><path d="M 341 474.5068504373098 C 340.725 474.21728484449693 340.1358394564614 474.77228484449694 339.69075434769195 475.74018377064317 C 339.0358034941422 477.16446468981854 339.1311359795984 477.2648465358747 340.19075434769195 476.26666666666665 C 340.9108394564614 475.58833333333337 341.275 474.79641603012277 341 474.5068504373098 Z " class="odd" fill="#000000"></path><path d="M 337.5 479 C 337.225 479 336.54254831103907 480.4625 335.9834406911979 482.25 C 335.4243330713568 484.0375 335.0403258822017 487.975 335.13009138196446 491 L 335.293301381533 496.5 L 336.0078605482469 489.5 C 336.4008680899396 485.65 337.0098752790947 481.7125 337.3612098574804 480.75 C 337.71254443586616 479.7875 337.775 479 337.5 479 Z " class="odd" fill="#000000"></path><path d="M 443.5 483 C 442.71397895730234 481.625 442.0708708314588 480.95 442.0708708314588 481.5 C 442.0708708314588 482.05 442.71397895730234 483.625 443.5 485 C 444.28602104269766 486.375 444.9291291685412 487.05 444.9291291685412 486.5 C 444.9291291685412 485.95 444.28602104269766 484.375 443.5 483 Z " class="odd" fill="#000000"></path><path d="M 456.8531135236909 485.75 C 458.58390108566095 488.0875 459.99107548236117 490.1125 459.98016773858046 490.25 L 459.96033547716087 490.5 L 457.48016773858046 490.25 C 455.567988817428 490.0572530648424 455 489.42746935157595 455 487.5 C 455 486.125 454.70890108566095 484.2125 454.3531135236909 483.25 C 453.99732596172095 482.2875 455.12232596172095 483.4125 456.8531135236909 485.75 Z " class="even" fill="#ffffff"></path><path d="M 399.19075434769195 490.73333333333335 C 398.1311359795984 489.7351534641253 398.0358034941422 489.83553531018146 398.69075434769195 491.25981622935683 C 399.1358394564614 492.22771515550306 399.725 492.78271515550307 400 492.4931495626902 C 400.275 492.20358396987723 399.9108394564614 491.41166666666663 399.19075434769195 490.73333333333335 Z " class="odd" fill="#000000"></path><path d="M 448.5496031746032 493 C 448.2167658730159 492.725 447.9924707602339 493.4 448.05116959064327 494.5 C 448.12550503410995 495.8930258446912 448.3091628886429 496.04476938351837 448.656328320802 495 C 448.93046679197994 494.175 448.8824404761905 493.275 448.5496031746032 493 Z " class="odd" fill="#000000"></path><path d="M 404 499 C 403.4668440519688 498.175 403.03062554903414 497.95 403.03062554903414 498.5 C 403.03062554903414 499.05 403.4668440519688 500.175 404 501 C 404.5331559480312 501.825 404.96937445096586 502.05 404.96937445096586 501.5 C 404.96937445096586 500.95 404.5331559480312 499.825 404 499 Z " class="odd" fill="#000000"></path><path d="M 409 509 C 408.4668440519688 508.175 408.03062554903414 507.95 408.03062554903414 508.5 C 408.03062554903414 509.05 408.4668440519688 510.175 409 511 C 409.5331559480312 511.825 409.96937445096586 512.05 409.96937445096586 511.5 C 409.96937445096586 510.95 409.5331559480312 509.825 409 509 Z " class="odd" fill="#000000"></path><path d="M 414 520.5 C 413.4582849113074 519.2393611585597 413.14057052522077 519.0545208689198 413.14057052522077 520 C 413.14057052522077 520.825 413.5273137888714 522.4 414 523.5 C 414.5417150886926 524.7606388414403 414.85942947477923 524.9454791310802 414.85942947477923 524 C 414.85942947477923 523.175 414.4726862111286 521.6 414 520.5 Z " class="odd" fill="#000000"></path></g></svg>